<svg xmlns="http://www.w3.org/2000/svg" fill="none" viewBox="0 0 32 32"><style>.bg{fill:#3056d3}.wp{fill:#fff}@media (prefers-color-scheme:light){.bg{fill:#3056d3}.wp{fill:#fff}}@media (prefers-color-scheme:dark){.bg{fill:#ceddef}.wp{fill:#212b36}}</style><rect class="bg" width="32" height="32" rx="5"/><path class="wp" d="m7.875 13.16 1.59 3.947 1.618-3.948h1.172l1.604 3.948 1.59-3.948h1.874l-3.047 6.973h-.761l-1.846-4.182-1.846 4.182h-.747L6 13.159h1.875Zm13.872-.133c.977 0 1.763.328 2.358.982.601.654.901 1.506.901 2.556 0 .688-.141 1.304-.425 1.846a3.05 3.05 0 0 1-1.193 1.267 3.426 3.426 0 0 1-1.758.454c-.532 0-1.067-.134-1.604-.403v3.72h-1.802V13.16h1.787v.44c.542-.381 1.12-.572 1.736-.572Zm-1.721 5.384c.45.258.869.388 1.26.388.566 0 1.02-.203 1.362-.608.342-.405.513-.928.513-1.567 0-.699-.154-1.246-.462-1.641-.303-.396-.735-.593-1.296-.593a1.7 1.7 0 0 0-.608.11c-.195.068-.452.217-.77.446v3.465Z"/></svg>
