<svg height="700pt" preserveAspectRatio="xMidYMid meet" viewBox="0 0 700 700" width="700pt" xmlns="http://www.w3.org/2000/svg"><g transform="matrix(.1 0 0 -.1 0 700)"><path d="m965 6993c-493-61-886-448-954-937-15-108-15-5004 0-5112 62-446 378-794 833-917l81-22 2520-3c1762-2 2545 0 2603 8 450 59 801 375 925 834l22 81 3 2520c2 1762 0 2545-8 2603-64 487-447 873-934 941-54 8-843 11-2569 10-1371-1-2505-4-2522-6zm3995-2867c112-31 199-84 291-175 73-73 93-101 132-181 68-144 81-206 81-395 0-145-3-168-28-250-69-226-204-386-395-466-113-47-197-61-336-57-116 4-184 20-307 73-17 7-18-16-18-399v-406h-195-195v1125 1125h195 195v-44-44l88 45c48 24 116 50 152 58 79 18 259 13 340-9zm-3065-431c94-234 172-425 175-425s84 191 180 425l174 426 130-3 130-3 170-422c94-233 174-423 177-423s82 190 176 423l170 422 206 3 206 2-93-212c-51-117-200-459-332-760l-239-548h-85-86l-198 450c-110 248-203 447-207 443s-95-206-202-448l-194-440-85-3-84-3-332 753c-183 414-332 756-332 761 0 4 91 7 203 7h202z"/><path d="m4575 3837c-50-17-98-42-152-79l-43-29v-378-377l38-21c129-73 298-82 416-24 104 51 185 160 216 291 28 115 9 333-36 423-68 135-166 199-313 204-52 2-102-2-126-10z"/></g></svg>