<svg viewBox="0 0 159 67" fill="none" xmlns="http://www.w3.org/2000/svg">
<path fill-rule="evenodd" clip-rule="evenodd" d="M77.1488 54.4375C84.4575 61.0698 95.2095 65.325 107.403 65.325C129.973 65.325 147.603 50.747 147.603 33.5C147.603 16.253 129.973 1.675 107.403 1.675C95.2095 1.675 84.4575 5.93018 77.1488 12.5625H74.7127C82.3869 4.90388 94.1793 0 107.403 0C130.53 0 149.278 14.9985 149.278 33.5C149.278 52.0015 130.53 67 107.403 67C94.1793 67 82.3869 62.0961 74.7127 54.4375H77.1488Z" fill="#637381"/>
<path d="M4.1875 29.7222L7.73706 38.5388L11.3521 29.7222H13.9692L17.5515 38.5388L21.1011 29.7222H25.2886L18.4839 45.2944H16.7827L12.6606 35.9543L8.53857 45.2944H6.87012L0 29.7222H4.1875ZM34.1379 29.4277C36.3844 29.4277 38.1619 30.1475 39.4705 31.5869C40.7791 33.0264 41.4333 35.0165 41.4333 37.5574V38.1626H30.6211C30.7847 39.5257 31.2917 40.578 32.1423 41.3196C33.0038 42.0502 34.1816 42.4155 35.6755 42.4155C36.6352 42.4155 37.5566 42.252 38.4399 41.9248C39.3341 41.5868 40.2556 41.0797 41.2043 40.4036V43.397C39.4159 44.6619 37.2458 45.2944 34.6941 45.2944C32.2841 45.2944 30.3158 44.5693 28.7891 43.1189C27.2624 41.6685 26.499 39.7384 26.499 37.3284C26.499 35.0056 27.2024 33.1082 28.6091 31.636C30.0268 30.1638 31.8697 29.4277 34.1379 29.4277ZM37.6548 35.7253C37.5457 34.613 37.2077 33.7461 36.6406 33.1245C36.0736 32.492 35.2939 32.1758 34.3015 32.1758C33.2874 32.1758 32.4695 32.4757 31.8479 33.0754C31.2372 33.6752 30.8501 34.5585 30.6865 35.7253H37.6548ZM48.7615 22.1487V45H44.7375V22.1487H48.7615ZM57.071 22.1487V45H53.0471V22.1487H57.071ZM69.0938 29.4277C71.2747 29.4277 73.0304 30.1584 74.3608 31.6196C75.7021 33.0809 76.3728 34.9838 76.3728 37.3284C76.3728 38.866 76.0566 40.24 75.4241 41.4504C74.8025 42.6609 73.9137 43.6042 72.7578 44.2803C71.6019 44.9564 70.2933 45.2944 68.832 45.2944C67.6434 45.2944 66.4493 44.9945 65.2498 44.3948V52.7043H61.2258V29.7222H65.217V30.7036C66.4275 29.853 67.7197 29.4277 69.0938 29.4277ZM65.2498 41.4504C66.253 42.0284 67.1908 42.3174 68.0632 42.3174C69.3282 42.3174 70.3424 41.8648 71.1057 40.9597C71.8691 40.0546 72.2507 38.8878 72.2507 37.4592C72.2507 35.8998 71.9072 34.6785 71.2202 33.7952C70.5441 32.9119 69.579 32.4702 68.325 32.4702C67.856 32.4702 67.4035 32.552 66.9673 32.7156C66.5311 32.8682 65.9586 33.2008 65.2498 33.7134V41.4504ZM85.075 29.4277C87.0378 29.4277 88.5373 29.8476 89.5732 30.6873C90.6092 31.516 91.1272 32.6774 91.1272 34.1714V41.6467C91.1272 42.2247 91.3617 42.5137 91.8306 42.5137C92.0269 42.5137 92.2995 42.4319 92.6484 42.2683C93.0083 42.0938 93.3082 41.8975 93.5481 41.6794V44.0022C92.1414 44.8637 90.8546 45.2944 89.6877 45.2944C88.968 45.2944 88.4119 45.1745 88.0193 44.9346C87.6376 44.6947 87.3704 44.2694 87.2178 43.6587C85.6802 44.7492 84.1371 45.2944 82.5886 45.2944C81.4872 45.2944 80.5385 44.9237 79.7424 44.1821C78.9573 43.4406 78.5647 42.5518 78.5647 41.5159C78.5647 40.1964 78.9573 39.1549 79.7424 38.3916C80.5276 37.6283 81.9016 36.9631 83.8645 36.396L87.1196 35.4473V34.7439C87.1196 33.2499 86.2145 32.5029 84.4043 32.5029C83.4774 32.5029 82.5559 32.7156 81.6399 33.1409C80.7239 33.5662 79.8896 34.1932 79.1372 35.022V31.407C80.8057 30.0875 82.7849 29.4277 85.075 29.4277ZM82.6213 40.9106C82.6213 41.4668 82.7958 41.9139 83.1448 42.252C83.5046 42.59 83.9463 42.759 84.4697 42.759C85.353 42.759 86.2363 42.3556 87.1196 41.5486V37.5247C85.9964 37.9063 85.1131 38.2662 84.4697 38.6042C83.8372 38.9423 83.3683 39.2858 83.063 39.6348C82.7686 39.9837 82.6213 40.409 82.6213 40.9106ZM99.9602 25.6655H100.287V29.7222H105.522V32.7646H100.287V39.8147C100.287 40.5017 100.495 41.0579 100.909 41.4832C101.323 41.9084 101.89 42.1211 102.61 42.1211C103.548 42.1211 104.628 41.783 105.849 41.1069V44.3293C104.399 44.9727 103.035 45.2944 101.76 45.2944C100.037 45.2944 98.6898 44.8255 97.7192 43.8877C96.7596 42.9499 96.2798 41.6794 96.2798 40.0764V32.7646H93.8916V32.1104L99.9602 25.6655ZM112.163 22.1487V31.865H112.261C113.559 30.2402 115.124 29.4277 116.956 29.4277C118.58 29.4277 119.889 29.9621 120.881 31.0308C121.874 32.0994 122.37 33.4953 122.37 35.2183V45H118.362V35.9871C118.362 34.962 118.117 34.1496 117.626 33.5498C117.146 32.9391 116.487 32.6338 115.647 32.6338C115.036 32.6338 114.458 32.8083 113.913 33.1572C113.379 33.5062 112.795 34.0841 112.163 34.8911V45H108.139V22.1487H112.163Z" fill="#3056D3"/>
</svg>
